<?xml version="1.0" standalone="no"?>
<!DOCTYPE svg PUBLIC "-//W3C//DTD SVG 20010904//EN"
 "http://www.w3.org/TR/2001/REC-SVG-20010904/DTD/svg10.dtd">
<svg version="1.0" xmlns="http://www.w3.org/2000/svg"
 width="512.000000pt" height="512.000000pt" viewBox="0 0 512.000000 512.000000"
 preserveAspectRatio="xMidYMid meet">
<metadata>
Created by potrace 1.11, written by Peter Selinger 2001-2013
</metadata>
<g transform="translate(0.000000,512.000000) scale(0.100000,-0.100000)"
fill="#000000" stroke="none">
<path d="M2310 4983 c-893 -67 -1705 -649 -2059 -1475 -316 -737 -253 -1584
169 -2258 535 -856 1516 -1293 2513 -1120 1186 206 2060 1288 2013 2495 -28
749 -383 1427 -981 1875 -474 355 -1066 528 -1655 483z m360 -1207 l0 -83 -84
-5 c-107 -7 -154 -29 -181 -83 -20 -39 -20 -63 -23 -1067 -3 -1141 -6 -1091
60 -1103 19 -4 157 -5 308 -3 272 3 275 3 320 28 72 40 114 144 174 423 l6 27
111 0 111 0 -6 -27 c-3 -16 -26 -145 -51 -288 -25 -143 -50 -284 -56 -312
l-10 -53 -905 0 -904 0 0 84 0 83 80 6 c104 8 150 31 176 88 18 42 19 76 19
1054 0 1007 0 1010 -21 1056 -27 58 -67 78 -174 86 l-80 6 0 83 0 84 565 0
565 0 0 -84z"/>
</g>
</svg>
